<?xml version="1.0" standalone="no"?>
<!DOCTYPE svg PUBLIC "-//W3C//DTD SVG 20010904//EN"
 "http://www.w3.org/TR/2001/REC-SVG-20010904/DTD/svg10.dtd">
<svg version="1.0" xmlns="http://www.w3.org/2000/svg"
 width="1024.000000pt" height="1024.000000pt" viewBox="0 0 1024.000000 1024.000000"
 preserveAspectRatio="xMidYMid meet">

<g transform="translate(0.000000,1024.000000) scale(0.100000,-0.100000)"
fill="#000000" stroke="none">
<path d="M0 5120 l0 -5120 5120 0 5120 0 0 5120 0 5120 -5120 0 -5120 0 0
-5120z m5557 2675 c489 -79 857 -508 880 -1026 9 -189 -25 -366 -94 -503 -30
-59 -27 -69 49 -152 337 -368 682 -970 846 -1474 141 -434 222 -1003 206
-1447 l-7 -182 -91 93 c-50 51 -107 106 -127 123 l-36 30 -7 164 c-35 833
-218 1565 -564 2254 -55 112 -218 395 -227 395 -1 0 17 -51 41 -113 159 -418
176 -830 47 -1177 -66 -179 -158 -329 -285 -465 -96 -102 -209 -189 -423 -322
-88 -55 -275 -173 -415 -263 -262 -168 -553 -348 -576 -357 -7 -2 -52 22 -101
54 -129 87 -441 282 -838 523 -192 117 -382 237 -422 267 -130 98 -229 221
-289 363 -67 155 -64 72 -64 1730 l0 1500 1203 0 c1016 0 1216 -2 1294 -15z"/>
<path d="M3450 6148 c0 -1355 -1 -1328 54 -1435 61 -122 144 -186 571 -443
149 -89 366 -221 483 -292 120 -74 219 -128 227 -124 8 3 94 56 192 119 98 62
279 176 403 252 420 258 491 311 588 443 124 167 179 337 189 572 4 111 1 167
-11 239 -50 288 -182 481 -376 552 l-55 20 45 47 c60 62 151 200 195 294 54
117 78 218 78 328 0 116 -19 196 -74 309 -56 115 -181 242 -289 294 -156 76
-78 71 -1207 75 l-1013 3 0 -1253z m1688 846 c218 -44 383 -199 437 -409 19
-76 19 -224 0 -300 -9 -32 -28 -81 -43 -109 -35 -66 -142 -174 -212 -214 -30
-17 -48 -32 -40 -32 40 0 162 -72 228 -134 114 -108 172 -244 172 -406 0 -301
-182 -524 -499 -613 -73 -21 -99 -21 -688 -25 l-613 -3 0 1131 0 1130 590 0
c497 0 603 -2 668 -16z"/>
<path d="M4300 6346 l0 -266 295 0 c301 0 368 6 435 40 49 25 100 78 121 125
21 44 26 166 9 209 -16 43 -78 103 -133 127 -51 23 -59 24 -389 27 l-338 3 0
-265z"/>
<path d="M4300 5440 l0 -291 353 3 c301 3 360 6 404 21 69 23 132 73 163 127
22 39 25 57 25 136 0 83 -2 94 -30 139 -39 62 -86 100 -160 127 -57 21 -80 22
-407 26 l-348 4 0 -292z"/>
</g>
</svg>
